# xmcd
#
# Track frame offsets:
# 150
# 15418
# 29505
# 44192
# 59933
# 77813
# 91493
# 109035
# 124240
# 139043
# 150348
# 165145
# 186010
# 202643
# 215168
# 238283
# 255453
# 271773
#
# Disc length: 3818 seconds
#
#
# Revision: 4
# Processed by: cddbd v1.5.2PL0 Copyright (c) Steve Scherf et al.
# Submitted via: FreeRIP 2.96 
#
DISCID=f70ee812
DTITLE=Various Artist - '70s Soul Gold   Disc One
DYEAR=2006
DGENRE=70's Oldies
TTITLE0=The Delfonics - Didn't I (Blow Your Mind This Time)
TTITLE1=The Originals - The Bells
TTITLE2=The Supremes - Up The Ladder To The Roof
TTITLE3=The Moments - Love On A Two Way Street
TTITLE4=The Jackson 5 - I'll Be There
TTITLE5=Smokey Robinson and The Miracles - The Tears Of A Clown
TTITLE6=Marvin Gaye - What's Going On
TTITLE7=James Brown - Soul Power   Part 1 and 2
TTITLE8=Ike and Tina Turner - Proud Mary
TTITLE9=Jean Knight - Mr. Big Stuff
TTITLE10=The Undisputed Truth - Smiling Faces Sometimes
TTITLE11=Isaac Hayes - Theme From Shaft
TTITLE12=Al Green - Let's Stay Together
TTITLE13=Betty Wright - Clean Up Woman
TTITLE14=The Dramatics - In The Rain
TTITLE15=The Stylistics - Betcha By Golly Wow
TTITLE16=The Chi-Lites - Oh Girl
TTITLE17=The Staple Singers - I'll Take You There
EXTD=
EXTT0=
EXTT1=
EXTT2=
EXTT3=
EXTT4=
EXTT5=
EXTT6=
EXTT7=
EXTT8=
EXTT9=
EXTT10=
EXTT11=
EXTT12=
EXTT13=
EXTT14=
EXTT15=
EXTT16=
EXTT17=
PLAYORDER=
